RBDS025runT35_grf
version=1
nRows=15
nColumns=19
inDegrees=no
endheader
time	ground_force_r_vx	ground_force_r_vy	ground_force_r_vz	ground_force_r_px	ground_force_r_py	ground_force_r_pz	ground_force_r_mx	ground_force_r_my	ground_force_r_mz	ground_force_l_vx	ground_force_l_vy	ground_force_l_vz	ground_force_l_px	ground_force_l_py	ground_force_l_pz	ground_force_l_mx	ground_force_l_my	ground_force_l_mz
      0.00000000	      0.00000000	      0.00000000	      0.00000000	      0.00000000	      0.00000000	      0.00000000	      0.00000000	      0.00000000	      0.00000000	    106.80133026	   1468.40475018	     15.93447441	      2.02049205	      0.00000000	      0.88960875	      0.00000000	      5.77832386	      0.00000000
      0.00100000	      0.00000000	      0.00000000	      0.00000000	      0.00000000	      0.00000000	      0.00000000	      0.00000000	      0.00000000	      0.00000000	    109.05318495	   1447.92564628	     14.27304507	      2.01831784	      0.00000000	      0.88967723	     -0.00000000	      5.92122265	      0.00000000
      0.00200000	      0.00000000	      0.00000000	      0.00000000	      0.00000000	      0.00000000	      0.00000000	      0.00000000	      0.00000000	      0.00000000	    111.30503964	   1427.44654237	     12.61161573	      2.01614362	      0.00000000	      0.88974570	     -0.00000000	      6.06412144	      0.00000000
      0.00300000	      0.00000000	      0.00000000	      0.00000000	      0.00000000	      0.00000000	      0.00000000	      0.00000000	      0.00000000	      0.00000000	    113.55689433	   1406.96743847	     10.95018639	      2.01396940	      0.00000000	      0.88981417	     -0.00000000	      6.20702023	      0.00000000
      0.00400000	      0.00000000	      0.00000000	      0.00000000	      0.00000000	      0.00000000	      0.00000000	      0.00000000	      0.00000000	      0.00000000	    115.76272584	   1386.43917244	      9.31468129	      2.01177807	      0.00000000	      0.88987859	     -0.00000000	      6.34477584	      0.00000000
      0.00500000	      0.00000000	      0.00000000	      0.00000000	      0.00000000	      0.00000000	      0.00000000	      0.00000000	      0.00000000	      0.00000000	    117.94554576	   1365.88632535	      7.69213831	      2.00957820	      0.00000000	      0.88994099	     -0.00000000	      6.47995986	      0.00000000
      0.00600000	      0.00000000	      0.00000000	      0.00000000	      0.00000000	      0.00000000	      0.00000000	      0.00000000	      0.00000000	      0.00000000	    120.12836568	   1345.33347826	      6.06959533	      2.00737832	      0.00000000	      0.89000339	     -0.00000000	      6.61514389	      0.00000000
      0.00700000	      0.00000000	      0.00000000	      0.00000000	      0.00000000	      0.00000000	      0.00000000	      0.00000000	      0.00000000	      0.00000000	    122.26882530	   1324.76511712	      4.47017311	      2.00516480	      0.00000000	      0.89006325	     -0.00000000	      6.74595837	      0.00000000
      0.00800000	      0.00000000	      0.00000000	      0.00000000	      0.00000000	      0.00000000	      0.00000000	      0.00000000	      0.00000000	      0.00000000	    124.32456431	   1304.16572785	      2.91699242	      2.00292397	      0.00000000	      0.89011804	     -0.00000000	      6.86803378	      0.00000000
      0.00900000	      0.00000000	      0.00000000	      0.00000000	      0.00000000	      0.00000000	      0.00000000	      0.00000000	      0.00000000	      0.00000000	    126.38030333	   1283.56633859	      1.36381172	      2.00068315	      0.00000000	      0.89017282	     -0.00000000	      6.99010920	      0.00000000
      0.01000000	      0.00000000	      0.00000000	      0.00000000	      0.00000000	      0.00000000	      0.00000000	      0.00000000	      0.00000000	      0.00000000	    128.43604235	   1262.96694933	     -0.18936897	      1.99844232	      0.00000000	      0.89022761	     -0.00000000	      7.11218461	      0.00000000
      0.01100000	      0.00000000	      0.00000000	      0.00000000	      0.00000000	      0.00000000	      0.00000000	      0.00000000	      0.00000000	      0.00000000	    130.30786637	   1242.34645206	     -1.64432104	      1.99614556	      0.00000000	      0.89027349	     -0.00000000	      7.21609184	      0.00000000
      0.01200000	      0.00000000	      0.00000000	      0.00000000	      0.00000000	      0.00000000	      0.00000000	      0.00000000	      0.00000000	      0.00000000	    132.17969040	   1221.72595480	     -3.09927311	      1.99384880	      0.00000000	      0.89031938	     -0.00000000	      7.31999907	      0.00000000
      0.01300000	      0.00000000	      0.00000000	      0.00000000	      0.00000000	      0.00000000	      0.00000000	      0.00000000	      0.00000000	      0.00000000	    134.05151442	   1201.10545753	     -4.55422518	      1.99155204	      0.00000000	      0.89036526	     -0.00000000	      7.42390630	      0.00000000
      0.01400000	      0.00000000	      0.00000000	      0.00000000	      0.00000000	      0.00000000	      0.00000000	      0.00000000	      0.00000000	      0.00000000	    135.76482749	   1180.48853985	     -5.92616779	      1.98920891	      0.00000000	      0.89040457	     -0.00000000	      7.51268788	      0.00000000
